HIERARCHY
ROOT Hips
{
  OFFSET -35.2597 29.1586 114.425
  CHANNELS 6 Xposition Yposition Zposition Zrotation Xrotation Yrotation
  JOINT LeftUpLeg
  {
    OFFSET 8.64259 1.95398 -2.38835
    CHANNELS 3 Zrotation Xrotation Yrotation
    JOINT LeftLeg
    {
      OFFSET 43.7702 0 0
      CHANNELS 3 Zrotation Xrotation Yrotation
      JOINT LeftFoot
      {
        OFFSET 40.6238 0 0
        CHANNELS 3 Zrotation Xrotation Yrotation
        JOINT LeftToeBase
        {
          OFFSET 12.7242 0 0
          CHANNELS 3 Zrotation Xrotation Yrotation
          End Site
          {
            OFFSET 0 0 0
          }
        }
      }
    }
  }
  JOINT RightUpLeg
  {
    OFFSET -8.2249 1.95398 -2.59336
    CHANNELS 3 Zrotation Xrotation Yrotation
    JOINT RightLeg
    {
      OFFSET 43.5653 0 0
      CHANNELS 3 Zrotation Xrotation Yrotation
      JOINT RightFoot
      {
        OFFSET 40.6238 0 0
        CHANNELS 3 Zrotation Xrotation Yrotation
        JOINT RightToeBase
        {
          OFFSET 12.7242 0 0
          CHANNELS 3 Zrotation Xrotation Yrotation
          End Site
          {
            OFFSET 0 0 0
          }
        }
      }
    }
  }
  JOINT Spine
  {
    OFFSET 0.165834 0.87714 6.61349
    CHANNELS 3 Zrotation Xrotation Yrotation
    JOINT Spine1
    {
      OFFSET 7.38963 1.71661e-005 0
      CHANNELS 3 Zrotation Xrotation Yrotation
      JOINT Spine2
      {
        OFFSET 11.9445 1.14441e-005 0
        CHANNELS 3 Zrotation Xrotation Yrotation
        JOINT Spine3
        {
          OFFSET 14.7254 4.19617e-005 0
          CHANNELS 3 Zrotation Xrotation Yrotation
          JOINT Spine4
          {
            OFFSET 10.9679 0 0
            CHANNELS 3 Zrotation Xrotation Yrotation
            JOINT RightShoulder
            {
              OFFSET 2.46616 -1.6653 3.69651
              CHANNELS 3 Zrotation Xrotation Yrotation
              JOINT RightArm
              {
                OFFSET 13.0012 0 0
                CHANNELS 3 Zrotation Xrotation Yrotation
                JOINT RightForeArm
                {
                  OFFSET 28.7848 1.62311e-005 0
                  CHANNELS 3 Zrotation Xrotation Yrotation
                  JOINT RightHand
                  {
                    OFFSET 26.5688 1.62095e-005 0
                    CHANNELS 3 Zrotation Xrotation Yrotation
                    End Site
                    {
                      OFFSET 0 0 0
                    }
                  }
                }
              }
            }
            JOINT LeftShoulder
            {
              OFFSET 2.38034 -1.29275 -3.7523
              CHANNELS 3 Zrotation Xrotation Yrotation
              JOINT LeftArm
              {
                OFFSET 16.3182 6.07031e-005 0
                CHANNELS 3 Zrotation Xrotation Yrotation
                JOINT LeftForeArm
                {
                  OFFSET 27.0901 0 0
                  CHANNELS 3 Zrotation Xrotation Yrotation
                  JOINT LeftHand
                  {
                    OFFSET 24.5451 1.51738e-005 0
                    CHANNELS 3 Zrotation Xrotation Yrotation
                    End Site
                    {
                      OFFSET 0 0 0
                    }
                  }
                }
              }
            }
            JOINT Neck
            {
              OFFSET 5.0226 -0.0266342 0
              CHANNELS 3 Zrotation Xrotation Yrotation
              JOINT Head
              {
                OFFSET 6.69364 2.86102e-005 0
                CHANNELS 3 Zrotation Xrotation Yrotation
                End Site
                {
                  OFFSET 0 0 0
                }
              }
            }
          }
        }
      }
    }
  }
}
MOTION
Frames:	14
Frame Time:	0.0416667
25.2967 99.1797 20.4855 -101.238 -47.9963 -103.525 -174.765 0.0352127 83.4034 -20.0189 2.3147 -2.49918 74.1289 6.23857 -1.6127 11.4412 -15.2648 7.9772 160.924 6.83468 71.5909 -19.1908 3.21578 2.61342 60.3488 -1.4306 2.34138 32.9427 -1.4497 -1.19268 1.33734 7.70987 -89.7409 11.4541 2.78189 0.233681 -0.213897 2.78948 0.110911 -22.7702 2.58297 1.0595 -2.7576 2.58297 1.05949 86.8211 -35.3013 -110.684 44.8988 7.3338 -2.97067 -4.94268 -36.3596 -5.2546 -29.6493 2.0758 -13.2013 -85.5389 -63.0464 87.0411 -15.1031 -17.0722 -1.09923 2.76723 20.7236 -3.82507 2.95689 -0.194278 -6.59863 -4.39599 24.9255 11.85 4.31792 23.5716 2.36097 
25.4078 99.1956 20.4979 -101.642 -49.2685 -104.296 -174.695 0.0377771 83.2476 -19.9695 3.80631 -2.75014 73.8454 6.45416 -1.36304 13.1656 -14.6456 8.76111 160.521 6.74444 71.0295 -19.3091 4.11967 2.78636 60.3178 -1.33441 2.63944 33.3549 -1.57159 -1.41288 1.37759 7.72806 -89.6769 11.4161 2.89188 0.351419 -0.251668 2.90457 0.223689 -22.8091 2.65249 1.20488 -2.7964 2.65249 1.20489 86.7213 -35.5019 -110.783 44.7302 7.3473 -3.18159 -5.02981 -37.816 -5.29925 -27.7501 2.20794 -14.3295 -85.6394 -63.2736 86.935 -14.5787 -17.3106 -2.82746 2.72596 19.3522 -3.78247 2.87088 -0.223774 -7.25786 -4.77906 24.1913 11.3404 3.96526 22.9266 2.018 
25.6905 99.2761 20.3569 -102.165 -49.7179 -104.641 -174.831 -0.0964993 83.2265 -19.7507 4.18955 -2.6164 73.5 6.51905 -1.12532 12.8423 -14.5399 8.32183 160.773 6.081 71.1347 -18.6893 4.86054 2.68499 60.0277 -1.19559 2.46705 33.28 -1.55731 -1.34038 1.38173 7.77168 -89.692 11.3292 2.89317 0.324202 -0.338503 2.90462 0.19643 -22.8961 2.66188 1.17931 -2.88343 2.66188 1.17931 86.9062 -35.407 -110.487 44.9497 7.05734 -3.95751 -5.11533 -39.1939 -5.34505 -28.5006 2.14794 -13.8398 -85.8209 -63.2477 86.6952 -15.3712 -17.138 -6.28748 2.81161 22.164 -3.8695 3.39842 -0.334558 -9.20766 -4.84973 23.8788 10.9747 4.0811 22.6697 2.27293 
25.9298 99.2697 20.2188 -102.511 -49.2174 -104.856 -174.637 -0.123434 83.2318 -20.3683 3.92025 -2.82739 74.1643 6.61503 -2.30965 12.7086 -16.6355 10.9259 161.104 6.09602 71.2022 -18.9315 4.6667 2.4569 60.2203 -1.22541 2.69919 32.7613 -1.16343 -2.00637 1.30109 7.84699 -89.7035 11.1784 2.72745 0.323157 -0.489725 2.73904 0.202705 -23.0447 2.50417 1.12843 -3.03203 2.50417 1.12841 86.7574 -35.3062 -110.797 44.9166 6.74304 -5.21501 -5.11168 -39.1381 -5.34302 -29.2889 2.15445 -13.6179 -85.717 -63.1413 86.8188 -16.4545 -16.7991 -10.281 2.9408 25.9531 -4.00772 3.0644 -0.379426 -10.4525 -4.46952 23.4687 11.0964 4.26604 22.1895 1.83531 
26.1429 99.2234 20.0745 -101.698 -47.2267 -104.1 -174.713 -0.00328557 83.0046 -19.9326 1.18907 -2.85322 73.7527 6.22218 -2.04666 13.1099 -14.5577 8.5927 161.535 7.55659 71.3852 -19.9873 2.71474 2.26277 60.4758 -1.23712 2.59494 32.0889 -0.884865 -1.94271 1.32351 7.86566 -89.7397 11.1421 2.7552 0.24961 -0.525966 2.76353 0.128012 -23.0818 2.55272 1.06664 -3.06915 2.55274 1.06665 87.605 -34.7989 -109.457 45.2272 6.40643 -5.97894 -5.09781 -38.9186 -5.33548 -29.6552 2.82223 -16.0633 -86.0301 -63.5264 86.4545 -17.2621 -16.4965 -13.4373 3.01823 28.0761 -4.08624 2.63408 -0.421196 -11.9226 -3.00956 20.3106 10.6408 3.92431 18.8997 0.688041 
26.0323 99.2863 19.8287 -101.256 -44.3318 -102.77 -174.271 -0.296813 83.7615 -19.9469 -0.672947 -2.98617 74.1654 6.29085 -2.50908 14.2142 -15.6213 11.049 162.57 7.68387 72.597 -19.8478 0.92012 1.94659 60.2507 -1.10216 2.40709 31.5906 -0.695506 -1.83224 1.2472 7.95381 -89.756 10.9657 2.59597 0.238592 -0.702671 2.60395 0.124027 -23.2562 2.40418 1.0082 -3.24351 2.40419 1.0082 86.4404 -35.6869 -111.213 43.7297 6.91987 -6.51645 -5.06016 -38.3107 -5.3153 -28.7974 2.89449 -16.6927 -86.6241 -63.7339 85.7077 -17.2121 -16.5439 -15.3539 3.03386 28.511 -4.10134 4.01504 -0.511389 -11.8968 -2.2272 12.8485 8.30342 6.35656 11.6605 0.017603 
25.4644 99.5182 19.4879 -100.497 -40.8049 -100.724 -174.056 -0.614622 84.9088 -19.4875 -4.13268 -2.5161 73.8295 5.70828 -2.76561 14.7665 -14.8055 10.5097 163.851 7.13709 74.4983 -18.4127 -1.02527 1.79756 59.4241 -0.674411 2.24485 30.9611 -0.514511 -1.46301 1.0969 7.95436 -89.7786 10.9645 2.28623 0.223003 -0.704456 2.29384 0.122106 -23.2538 2.11348 0.900109 -3.24113 2.11348 0.900098 86.0486 -36.2738 -111.673 43.4351 7.10517 -6.29223 -5.07596 -38.5669 -5.32358 -29.4198 2.83691 -16.2151 -86.3676 -62.1804 85.8513 -18.1794 -16.0818 -14.6446 3.03493 28.478 -4.10469 5.01684 -0.566079 -11.7037 -1.07772 2.24519 3.93661 6.64192 1.60523 -1.25954 
24.6561 99.8175 18.9021 -99.2447 -36.6726 -98.1877 -173.935 -1.04798 86.2256 -17.8308 -7.37688 -1.98058 73.0198 5.49725 -1.76087 16.075 -14.1738 10.9207 164.555 7.7398 77.1632 -18.3665 2.527 2.95869 59.4037 -0.680336 0.232294 27.7993 -0.0394436 1.4572 0.921165 7.93044 -89.823 11.0127 1.91581 0.168837 -0.656888 1.9214 0.0843111 -23.202 1.77648 0.736991 -3.18936 1.77649 0.736992 85.5492 -36.8178 -112.331 42.7264 7.56507 -5.65119 -5.07117 -38.4914 -5.32106 -29.6131 2.69535 -15.5928 -86.4864 -61.7107 85.6357 -17.4411 -16.4048 -12.6757 3.09448 30.0196 -4.16545 2.65178 -0.444481 -12.5695 -0.943133 -9.11801 -0.510918 6.15514 -9.16152 -4.2508 
23.4005 100.281 18.0994 -97.7285 -31.9039 -94.8878 -173.589 -1.40882 88.3702 -16.3696 -13.8052 -1.09523 72.9398 4.98691 -4.49345 16.1508 -14.3029 11.1829 164.397 7.50776 81.1239 -18.6378 17.761 6.64955 60.4277 -1.22619 0.230861 24.2048 1.18234 2.27965 0.798893 7.89756 -89.9673 11.0803 1.60537 -0.0900985 -0.58965 1.59987 -0.160695 -23.1324 1.55824 0.396672 -3.11981 1.55822 0.396666 86.2703 -36.6634 -111.12 42.7678 7.6821 -5.09121 -5.06541 -38.3952 -5.31811 -29.1586 2.67014 -15.6683 -86.4189 -61.3284 85.6774 -17.9929 -16.1509 -11.189 3.07471 29.2343 -4.15942 1.12028 -0.29822 -11.1747 -0.956401 -19.5767 -5.88248 4.36128 -18.7851 -6.13893 
21.5521 100.586 17.1082 -97.5247 -25.7484 -93.3254 -173.178 -3.96052 89.8614 -13.2872 -19.356 -0.515733 71.2256 4.85103 -3.99842 18.0875 -12.6959 10.8878 166.699 5.48532 84.1606 -16.964 22.2135 7.36621 61.8543 -1.52238 0.702363 21.3358 3.1661 0.159696 0.72115 7.93045 -90.0012 11.0145 1.43513 -0.139677 -0.655664 1.4276 -0.202731 -23.197 1.41075 0.298187 -3.18437 1.41075 0.298183 85.9576 -36.936 -111.562 41.929 8.2668 -4.06766 -5.08725 -38.7486 -5.3297 -27.1357 2.64021 -16.377 -86.5492 -60.3114 85.373 -18.5471 -15.9124 -9.41913 3.07781 29.8844 -4.134 1.07115 -0.2777 -10.6233 -3.36583 -26.2938 -10.6909 4.62669 -25.1668 -8.29586 
19.1599 100.504 16.021 -97.2835 -17.8882 -91.8035 -172.447 -6.53529 91.0988 -11.632 -26.8397 -0.278753 70.5253 4.77404 -5.26947 21.9515 -11.8581 13.6749 169.657 4.45769 87.1152 -15.7694 16.6368 5.30984 62.7087 -1.56406 0.216281 21.7078 2.66212 1.07327 0.6396 7.91436 -90.0544 11.0473 1.24799 -0.228688 -0.623124 1.23671 -0.283406 -23.1631 1.25903 0.157021 -3.15046 1.259 0.157011 86.0358 -36.9222 -111.428 41.1869 8.62504 -3.8128 -5.28403 -41.7739 -5.44012 -26.3241 2.59286 -16.5382 -86.8116 -59.5888 84.9235 -18.998 -15.7315 -7.6378 3.03672 28.6048 -4.10208 1.15827 -0.265877 -10.0469 -4.03471 -28.5047 -12.8284 5.04395 -27.2353 -8.36794 
16.4841 100.318 14.5677 -97.7458 -9.93084 -90.4331 -170.888 -9.5051 92.8167 -11.0979 -33.7746 -0.559327 70.4008 6.35179 -6.23079 23.1113 -11.5972 14.6222 172.091 2.88195 90.3261 -15.6649 11.2995 3.89003 64.3833 -1.6544 -0.428473 21.2342 2.5794 1.83356 0.440851 7.89584 -90.1558 11.0834 0.805522 -0.387788 -0.587373 0.787661 -0.422872 -23.1244 0.884825 -0.127756 -3.11173 0.884822 -0.127755 86.439 -36.734 -110.792 41.4765 8.46544 -4.00542 -5.37391 -43.0767 -5.49439 -26.2089 2.661 -16.8914 -86.8327 -59.4061 84.8701 -19.0043 -15.7347 -6.27438 2.86412 23.9925 -3.91252 -0.904918 -0.177518 -11.1619 -4.03706 -27.718 -12.9439 5.60044 -26.4527 -7.97191 
13.8763 99.6992 12.7281 -98.0674 -1.8373 -88.0134 -167.372 -10.1481 95.9968 -14.8185 -38.7489 -2.66149 69.2017 8.80303 -3.76993 28.5172 -8.08568 15.2173 173.783 2.48018 93.0702 -18.1606 5.58703 3.10627 67.1058 -2.01753 0.02746 20.6424 2.74232 2.06187 0.325009 7.8739 -90.3365 11.1272 0.490659 -0.717485 -0.543872 0.458656 -0.738397 -23.0788 0.683622 -0.536858 -3.06614 0.683616 -0.536855 87.1945 -35.3916 -109.971 42.8361 7.82654 -4.36593 -5.20688 -40.6192 -5.39604 -27.9673 2.88801 -17.0325 -87.0544 -60.3912 84.7048 -18.1448 -16.0777 -8.94352 3.08547 30.0422 -4.14342 0.392625 -0.208789 -9.26726 -3.08945 -27.0058 -11.2908 5.60055 -25.7996 -7.89088 
11.9304 98.9271 10.5512 -99.1595 5.59056 -84.1769 -162.295 -5.14753 102.195 -27.3433 -35.5168 -3.79424 81.1077 11.2883 -21.6887 46.4883 -25.7574 73.0172 174.625 0.873517 95.938 -19.4536 -0.576769 3.31677 69.8228 -3.35798 -0.163057 19.3688 2.453 4.16608 0.258984 7.92051 -90.4707 11.0331 0.29744 -0.965211 -0.638192 0.254679 -0.977375 -23.1714 0.573795 -0.831204 -3.15868 0.573761 -0.831219 87.2726 -35.7983 -109.67 42.4546 7.89462 -4.74707 -5.22009 -40.8183 -5.40355 -26.4924 2.68087 -16.8332 -87.0855 -59.1673 84.4937 -19.1612 -15.6389 -12.0684 3.07941 29.7294 -4.14479 3.78722 -0.421944 -10.501 -3.15261 -26.4166 -11.667 5.40674 -25.1774 -7.87935 
